<?xml version="1.0" encoding="UTF-8"?>
<svg version="1.1" xmlns="http://www.w3.org/2000/svg" width="611" height="692">
<path d="M0 0 C2.00831752 0.41467707 4.01686491 0.82824233 6.02563477 1.24072266 C11.81271466 2.43361828 17.59430174 3.6516141 23.375 4.875 C24.90572842 5.19742377 26.43648757 5.51970168 27.96728516 5.84179688 C33.80376807 7.07167281 39.63691532 8.31610162 45.46484375 9.5859375 C46.41343262 9.79186523 47.36202148 9.99779297 48.33935547 10.20996094 C50.579567 10.70073914 52.8179087 11.20007085 55.05517578 11.70410156 C56.29638184 11.97963867 57.53758789 12.25517578 58.81640625 12.5390625 C59.94892822 12.79381348 61.0814502 13.04856445 62.24829102 13.31103516 C65.04872358 13.81614949 67.54047937 13.98823514 70.375 13.875 C70.375 14.535 70.375 15.195 70.375 15.875 C71.65592529 15.99560791 72.93685059 16.11621582 74.2565918 16.24047852 C79.35867853 16.81062432 84.27616713 17.85469401 89.26953125 19.02734375 C90.20253052 19.24283371 91.13552979 19.45832367 92.09680176 19.68034363 C95.12873892 20.38398477 98.15832991 21.09704557 101.1875 21.8125 C102.22844818 22.05732117 103.26939636 22.30214233 104.34188843 22.55438232 C170.87572581 38.24319479 232.05399163 59.7781246 282.375 107.875 C283.12265625 108.58140625 283.8703125 109.2878125 284.640625 110.015625 C290.03889587 115.24387159 294.75750569 120.95321347 299.375 126.875 C299.79652344 127.41479492 300.21804688 127.95458984 300.65234375 128.51074219 C324.09698391 158.7905037 339.70963268 194.13799552 346.375 231.875 C346.55828857 232.86685303 346.74157715 233.85870605 346.93041992 234.88061523 C349.02634554 247.97616836 348.81580822 261.20888622 348.8125 274.4375 C348.81360275 276.34559448 348.81360275 276.34559448 348.81472778 278.29223633 C348.78576121 297.34353734 348.02541317 315.32586139 343.375 333.875 C343.12331055 334.94331055 342.87162109 336.01162109 342.61230469 337.11230469 C333.06197413 377.15161505 312.48580477 413.14245247 284.72265625 443.30859375 C282.67175902 445.55058956 280.67022467 447.82291029 278.6875 450.125 C273.05993257 456.58092432 266.92027532 462.36159189 260.375 467.875 C259.83762207 468.33148926 259.30024414 468.78797852 258.74658203 469.25830078 C248.45570468 477.96254029 237.73667667 485.63581148 226.375 492.875 C225.68809082 493.32020996 225.00118164 493.76541992 224.29345703 494.22412109 C210.55069609 503.11068976 196.00295603 510.4760303 181.41241455 517.84521484 C179.3387655 518.89331426 177.26665265 519.94440053 175.19482422 520.99609375 C158.48640977 529.4713312 141.69718138 537.69742193 124.66796875 545.51171875 C117.11447684 548.98072213 109.60557679 552.54138268 102.09613037 556.10449219 C89.50061411 562.07789431 76.87910268 567.99238598 64.20828247 573.80453491 C62.663555 574.51322615 61.11933707 575.22302919 59.57565308 575.93399048 C57.43751045 576.91799697 55.29726851 577.89726966 53.15625 578.875 C52.21036766 579.31122932 52.21036766 579.31122932 51.24537659 579.75627136 C48.8509507 580.8440516 46.57736715 581.82679343 44.01367188 582.4375 C43.47291016 582.581875 42.93214844 582.72625 42.375 582.875 C42.045 583.535 41.715 584.195 41.375 584.875 C39.69091797 585.55297852 39.69091797 585.55297852 37.4921875 586.19140625 C31.93375272 587.94526003 26.76929178 590.33786356 21.5 592.8125 C11.02418218 597.67668688 0.49587999 602.40439734 -10.06591797 607.07788086 C-11.15533691 607.5600708 -12.24475586 608.04226074 -13.3671875 608.5390625 C-14.81907471 609.18029053 -14.81907471 609.18029053 -16.30029297 609.83447266 C-17.75518066 610.48567317 -19.19930429 611.16215215 -20.625 611.875 C-31.63486536 612.80743159 -41.68719532 610.52673836 -51.625 605.875 C-52.615 605.545 -53.605 605.215 -54.625 604.875 C-54.625 604.215 -54.625 603.555 -54.625 602.875 C-55.46168213 602.61775146 -56.29836426 602.36050293 -57.16040039 602.09545898 C-60.93497962 600.76580487 -64.47698238 599.11579454 -68.05859375 597.34765625 C-68.76435043 597.00309387 -69.47010712 596.65853149 -70.19725037 596.30352783 C-71.70527096 595.56681677 -73.21247806 594.82843856 -74.71893311 594.08853149 C-77.89107546 592.53054919 -81.06713366 590.98063089 -84.24304199 589.43034363 C-85.83121044 588.65503993 -87.41918315 587.87933513 -89.00695801 587.10322571 C-95.15585224 584.09868919 -101.32117014 581.13001517 -107.5 578.1875 C-115.71622663 574.2701097 -123.92166674 570.3309125 -132.1194458 566.37509155 C-133.39518237 565.75950407 -134.67101745 565.14412068 -135.94696045 564.52896118 C-138.8432329 563.13243921 -141.73790001 561.73278057 -144.62988281 560.32739258 C-146.45829244 559.44075997 -148.29016533 558.5611681 -150.12792969 557.6940918 C-153.59810568 556.03166309 -156.52860695 554.55531413 -159 551.5625 C-159.46148437 551.03011719 -159.92296875 550.49773438 -160.3984375 549.94921875 C-163.56796781 544.58928055 -163.91609707 538.80950189 -163.87947559 532.72987556 C-163.88428531 531.53656643 -163.88428531 531.53656643 -163.88919219 530.31915003 C-163.89748978 527.65492315 -163.89156874 524.99092121 -163.88569641 522.32669067 C-163.8887172 520.39665545 -163.89260632 518.46662141 -163.89728898 516.5365895 C-163.90758703 511.23382333 -163.90538254 505.93112463 -163.90110838 500.62835288 C-163.89864445 494.90908815 -163.90765119 489.18983981 -163.91514587 483.47058105 C-163.92790411 472.26630167 -163.92968517 461.06204623 -163.92734561 449.8577608 C-163.92556356 440.75188008 -163.92730966 431.64600665 -163.93157005 422.5401268 C-163.93216524 421.24480468 -163.93276043 419.94948255 -163.93337366 418.61490824 C-163.93458539 415.98357456 -163.93579952 413.35224088 -163.93701603 410.7209072 C-163.94480476 393.04977795 -163.94872131 375.3786521 -163.94469929 357.70752144 C-163.94454291 357.01653191 -163.94438654 356.32554239 -163.94422542 355.61361379 C-163.94341964 352.11143617 -163.94257387 348.60925856 -163.94171212 345.10708095 C-163.94154103 344.41154234 -163.94136994 343.71600373 -163.94119367 342.9993882 C-163.94084702 341.59284039 -163.94049849 340.18629258 -163.94014808 338.77974476 C-163.93479076 316.89334907 -163.94272175 295.00699365 -163.96118164 273.12060547 C-163.98189931 248.52857342 -163.99259372 223.93656868 -163.98860615 199.34452713 C-163.98669232 186.32443884 -163.98919938 173.30438727 -164.00332069 160.28430557 C-164.01522036 149.20033679 -164.01665525 138.1164273 -164.00453053 127.03245772 C-163.99863195 121.37671136 -163.9975695 115.72107353 -164.00953293 110.06533432 C-164.02035805 104.88758969 -164.0173285 99.71004468 -164.00327124 94.53230952 C-164.00061502 92.6595582 -164.00301977 90.78679141 -164.01100711 88.91405524 C-164.0997362 66.55797395 -164.0997362 66.55797395 -157.41113281 59.328125 C-153.07143991 55.79752738 -147.95459763 53.41920357 -143 50.875 C-141.75014155 50.2209358 -140.50088324 49.56572364 -139.25219727 48.90942383 C-136.02102168 47.21538019 -132.78179881 45.53741003 -129.53973389 43.86431885 C-126.50331327 42.29543862 -123.47274618 40.71539337 -120.44140625 39.13671875 C-115.90697319 36.77867308 -111.36913239 34.42739038 -106.828125 32.08203125 C-94.64660208 25.7887399 -82.52993648 19.39120989 -70.5 12.8125 C-67.75106656 11.31089691 -65.00193332 9.80966229 -62.25244141 8.30908203 C-60.53812038 7.37338962 -58.82423257 6.43690292 -57.11083984 5.49951172 C-54.80692868 4.24236643 -52.49810668 2.99478599 -50.1875 1.75 C-49.18662354 1.20073853 -49.18662354 1.20073853 -48.16552734 0.64038086 C-32.48322927 -7.75355416 -16.47929887 -3.4876043 0 0 Z M-37.625 107.875 C-37.625 229.315 -37.625 350.755 -37.625 475.875 C-32.02434399 473.38581955 -26.51834859 470.88909062 -21.0625 468.125 C-20.03950806 467.61066406 -20.03950806 467.61066406 -18.99584961 467.0859375 C-16.19904372 465.67967565 -13.40459565 464.26876571 -10.61035156 462.85742188 C-3.15961184 459.09709793 4.31255067 455.40615164 11.875 451.875 C25.78683626 445.36828068 39.40032388 438.318811 53.02294922 431.22900391 C60.27507878 427.46144153 67.55542727 423.75962758 74.875 420.125 C83.84830782 415.65962127 92.76590928 411.10838671 101.59667969 406.36669922 C103.608414 405.28658528 105.62237572 404.21061655 107.63769531 403.13720703 C130.30185657 391.03312645 152.30994589 378.29976031 171.375 360.875 C172.81078118 359.68542238 174.24803286 358.4976147 175.6875 357.3125 C180.53939736 353.02717239 184.44558897 347.99691885 188.375 342.875 C188.99060791 342.07980957 188.99060791 342.07980957 189.61865234 341.26855469 C206.93325633 318.72023329 215.60522047 292.2746364 215.5 263.8125 C215.50386719 262.76255859 215.50773438 261.71261719 215.51171875 260.63085938 C216.11599193 251.74804281 216.11599193 251.74804281 213.375 243.875 C213.25125 242.699375 213.1275 241.52375 213 240.3125 C212.57868452 236.52066068 211.56973365 233.33749243 210.09375 229.83203125 C209.375 227.875 209.375 227.875 208.91796875 225.48828125 C205.88795353 210.90497059 196.59703702 198.18314523 187.375 186.875 C186.36759766 185.63363281 186.36759766 185.63363281 185.33984375 184.3671875 C180.29116222 178.41658545 174.55732873 173.61210903 168.375 168.875 C166.88613281 167.70324219 166.88613281 167.70324219 165.3671875 166.5078125 C145.36853081 151.20331488 121.68434747 141.75476415 97.375 135.875 C94.27223946 135.10736554 91.17910268 134.30535954 88.0859375 133.5 C85.97402456 132.95807517 83.86204281 132.41641847 81.75 131.875 C80.70714844 131.60171875 79.66429687 131.3284375 78.58984375 131.046875 C72.87700957 129.59192098 67.41117681 128.50913908 61.51806641 128.18359375 C59.375 127.875 59.375 127.875 57.68188477 126.95298767 C54.62525177 125.52464901 51.63114425 124.97824749 48.32177734 124.31860352 C47.61858871 124.17682678 46.91540009 124.03505005 46.19090271 123.88897705 C43.86533726 123.4216421 41.5382132 122.96264207 39.2109375 122.50390625 C37.578173 122.17806977 35.94549406 121.85180426 34.31289673 121.52513123 C30.8821493 120.83992074 27.45066178 120.15859129 24.01855469 119.48022461 C19.67201669 118.62100066 15.32699354 117.75440399 10.98247337 116.88504124 C7.60234249 116.20918048 4.22161144 115.53636252 0.8406868 114.86448479 C-0.75781818 114.54666313 -2.35619442 114.22819312 -3.95442581 113.90899849 C-4.71306301 113.75771933 -5.47170021 113.60644016 -6.25332642 113.45057678 C-7.23845183 113.25378877 -7.23845183 113.25378877 -8.24347878 113.05302525 C-18.02715081 111.13952165 -27.77523626 109.51662729 -37.625 107.875 Z " fill="#EC303B" transform="translate(217.625,40.125)"/>
<path d="M0 0 C2.00831752 0.41467707 4.01686491 0.82824233 6.02563477 1.24072266 C11.81271466 2.43361828 17.59430174 3.6516141 23.375 4.875 C24.90572842 5.19742377 26.43648757 5.51970168 27.96728516 5.84179688 C33.80376807 7.07167281 39.63691532 8.31610162 45.46484375 9.5859375 C46.41343262 9.79186523 47.36202148 9.99779297 48.33935547 10.20996094 C50.579567 10.70073914 52.8179087 11.20007085 55.05517578 11.70410156 C56.29638184 11.97963867 57.53758789 12.25517578 58.81640625 12.5390625 C59.94892822 12.79381348 61.0814502 13.04856445 62.24829102 13.31103516 C65.04872358 13.81614949 67.54047937 13.98823514 70.375 13.875 C70.375 14.535 70.375 15.195 70.375 15.875 C71.65592529 15.99560791 72.93685059 16.11621582 74.2565918 16.24047852 C79.35867853 16.81062432 84.27616713 17.85469401 89.26953125 19.02734375 C90.20253052 19.24283371 91.13552979 19.45832367 92.09680176 19.68034363 C95.12873892 20.38398477 98.15832991 21.09704557 101.1875 21.8125 C102.22844818 22.05732117 103.26939636 22.30214233 104.34188843 22.55438232 C170.87572581 38.24319479 232.05399163 59.7781246 282.375 107.875 C283.12265625 108.58140625 283.8703125 109.2878125 284.640625 110.015625 C290.03889587 115.24387159 294.75750569 120.95321347 299.375 126.875 C299.79652344 127.41479492 300.21804688 127.95458984 300.65234375 128.51074219 C322.0392697 156.13287726 340.51809005 190.79913779 344.4375 225.9375 C344.8920898 229.83344731 345.35028078 233.71811534 345.9609375 237.59375 C346.47290038 241.65081437 346.00939133 244.85718825 345.375 248.875 C344.715 248.875 344.055 248.875 343.375 248.875 C343.66375 249.68839844 343.9525 250.50179687 344.25 251.33984375 C349.56138036 267.73504214 348.62796576 281.5056624 340.765625 297.05859375 C336.97220744 303.88848546 332.53169261 310.0155537 327.375 315.875 C326.70597656 316.63941406 326.03695313 317.40382813 325.34765625 318.19140625 C311.28987775 333.18801705 293.17539577 343.94872723 275.375 353.875 C274.63813965 354.2889502 273.9012793 354.70290039 273.14208984 355.12939453 C265.10990757 359.61869216 256.97315154 363.56884435 248.375 366.875 C247.18777344 367.33390625 246.00054687 367.7928125 244.77734375 368.265625 C236.48772371 371.43335755 228.131192 374.39749958 219.72851562 377.25146484 C215.34758928 378.75842405 211.07533022 380.40547437 206.81640625 382.23046875 C199.20221699 385.44068068 191.40320215 388.03275551 183.5625 390.625 C182.39388428 391.01318405 182.39388428 391.01318405 181.20166016 391.40921021 C155.87487531 399.80736757 130.14313077 407.88845231 103.875 412.75 C103.17391113 412.8826123 102.47282227 413.01522461 101.75048828 413.15185547 C98.36290365 413.73731207 95.6410202 414.09142589 92.375 412.875 C94.025 412.215 95.675 411.555 97.375 410.875 C97.375 410.215 97.375 409.555 97.375 408.875 C98.365 408.875 99.355 408.875 100.375 408.875 C100.375 407.885 100.375 406.895 100.375 405.875 C101.08406494 405.49802979 101.79312988 405.12105957 102.52368164 404.73266602 C141.17658728 384.33817051 141.17658728 384.33817051 174.6484375 356.51953125 C177.375 353.875 177.375 353.875 179.375 353.875 C179.643125 353.28332031 179.91125 352.69164062 180.1875 352.08203125 C181.3853024 349.85585245 182.63436491 348.38263525 184.375 346.5625 C204.67486093 323.76744783 214.61087029 293.93660963 214.5 263.6875 C214.50386719 262.62080078 214.50773437 261.55410156 214.51171875 260.45507812 C214.51042969 259.42447266 214.50914062 258.39386719 214.5078125 257.33203125 C214.50668457 256.40366455 214.50555664 255.47529785 214.50439453 254.51879883 C214.31986934 250.7485663 213.5666162 247.4498486 212.375 243.875 C211.84492584 239.89944379 211.38041036 235.92369321 210.9375 231.9375 C210.751875 230.926875 210.56625 229.91625 210.375 228.875 C209.715 228.545 209.055 228.215 208.375 227.875 C208.00846279 226.2153195 207.68172497 224.54676813 207.375 222.875 C202.48471638 209.27572523 195.40480444 198.0030763 186.375 186.875 C185.776875 186.12089844 185.17875 185.36679688 184.5625 184.58984375 C179.83535689 178.87409138 174.23772547 174.38305206 168.375 169.875 C167.38113281 169.09253906 166.38726562 168.31007812 165.36328125 167.50390625 C146.79203502 153.29647365 117.56450719 136.875 93.375 136.875 C93.375 136.215 93.375 135.555 93.375 134.875 C92.446875 134.76285156 91.51875 134.65070313 90.5625 134.53515625 C84.44658945 133.66299295 78.46473962 132.06624696 72.46875 130.60351562 C66.45499418 129.18155102 66.45499418 129.18155102 60.3125 128.84765625 C59.343125 128.85667969 58.37375 128.86570313 57.375 128.875 C56.715 128.215 56.055 127.555 55.375 126.875 C53.11444044 126.27456225 50.82728881 125.77325248 48.53295898 125.31860352 C47.47620468 125.10593842 47.47620468 125.10593842 46.39810181 124.88897705 C44.05717782 124.41986454 41.71423297 123.96181482 39.37109375 123.50390625 C37.73303636 123.17826612 36.09510371 122.85199798 34.45729065 122.52513123 C31.01059469 121.83885499 27.56296509 121.15756436 24.11450195 120.48022461 C19.74303429 119.62157938 15.37319928 118.75497918 11.00396633 117.88504124 C6.7935361 117.04699941 2.58237107 116.21267932 -1.62890625 115.37890625 C-2.41104555 115.22383669 -3.19318485 115.06876713 -3.99902534 114.90899849 C-6.27965062 114.45763673 -8.56067492 114.00839278 -10.84204102 113.56079102 C-11.92704061 113.34791112 -11.92704061 113.34791112 -13.03395939 113.13073063 C-19.14279695 111.94434072 -25.26928296 110.86644922 -31.40884495 109.85110569 C-36.51694925 108.98305075 -36.51694925 108.98305075 -37.625 107.875 C-38.615 108.865 -38.615 108.865 -39.625 109.875 C-40.88095486 105.07332404 -40.70495995 100.41739565 -40.61499023 95.49829102 C-40.6021701 94.56110229 -40.58934998 93.62391357 -40.57614136 92.6583252 C-40.54783167 90.62742948 -40.51716291 88.59656558 -40.48440361 86.56573677 C-40.43313717 83.3502693 -40.38932837 80.13477966 -40.34767151 76.91917419 C-40.22811253 67.77790187 -40.09669638 58.63682498 -39.95629883 49.49584961 C-39.87088891 43.90107027 -39.79554626 38.3062279 -39.72636604 32.71122551 C-39.69795699 30.58094691 -39.66563138 28.45071678 -39.62930107 26.32055855 C-39.57864887 23.34078476 -39.54074202 20.36109503 -39.50561523 17.38110352 C-39.4875029 16.50350876 -39.46939056 15.625914 -39.45072937 14.72172546 C-39.41000837 10.0414055 -39.69839432 6.23814802 -41.625 1.875 C-42.285 1.215 -42.945 0.555 -43.625 -0.125 C-42.625 -2.125 -42.625 -2.125 -39.9375 -3.25 C-26.71374632 -6.5538735 -12.96347331 -2.74353088 0 0 Z " fill="#EF2F37" transform="translate(217.625,40.125)"/>
<path d="M0 0 C0.33 0 0.66 0 1 0 C1.33 121.44 1.66 242.88 2 368 C14.71977898 361.91662745 27.18568792 355.93898939 39.58984375 349.3359375 C49.35747916 344.14043202 59.29521704 339.31725796 69.3125 334.625 C76.44054532 331.2808813 83.42380816 327.72622769 90.36889648 324.01879883 C98.42052613 319.73626181 106.58608321 315.68983164 114.75415039 311.63500977 C121.5449275 308.25508822 128.26005489 304.78613767 134.875 301.07421875 C137 300 137 300 139 300 C139 300.66 139 301.32 139 302 C138.01 302 137.02 302 136 302 C136 302.66 136 303.32 136 304 C134.68 304.66 133.36 305.32 132 306 C174.37501404 301.15507519 218.15253071 286.02269937 257.55126953 269.99609375 C262.16259911 268.12029867 266.80265992 266.3167333 271.4375 264.5 C272.39720703 264.12230469 273.35691406 263.74460937 274.34570312 263.35546875 C279.12502283 261.48236163 283.91280231 259.66389446 288.75 257.9453125 C293.1781525 256.34541291 297.37873957 254.52857105 301.5625 252.375 C302.55878418 251.86839844 302.55878418 251.86839844 303.57519531 251.3515625 C336.16110113 234.6268577 371.8362126 213.45105972 384.08203125 176.7578125 C385.08893986 172.63591428 385.34320877 168.9695768 385.3125 164.75 C385.31121094 164.00927246 385.30992187 163.26854492 385.30859375 162.50537109 C385.2144739 157.08995044 384.38097336 152.25976291 382.65625 147.1015625 C382 145 382 145 382 142 C382.66 142 383.32 142 384 142 C384.19912011 135.92683674 383.63396072 130.54926809 382.4453125 124.59765625 C381.88388512 121.32266323 381.85278958 118.3122344 382 115 C382.33 115 382.66 115 383 115 C383.4835135 117.47838682 383.96187201 119.95759778 384.4375 122.4375 C384.57220703 123.12521484 384.70691406 123.81292969 384.84570312 124.52148438 C386.61240606 133.78590221 387.18165501 142.86625822 387.2734375 152.29296875 C387.28601089 153.46483231 387.29858429 154.63669586 387.3115387 155.84407043 C387.72964413 204.14612461 387.72964413 204.14612461 382 227 C381.74831055 228.06831055 381.49662109 229.13662109 381.23730469 230.23730469 C371.68697413 270.27661505 351.11080477 306.26745247 323.34765625 336.43359375 C321.29675902 338.67558956 319.29522467 340.94791029 317.3125 343.25 C311.68493257 349.70592432 305.54527532 355.48659189 299 361 C298.46262207 361.45648926 297.92524414 361.91297852 297.37158203 362.38330078 C287.08070468 371.08754029 276.36167667 378.76081148 265 386 C264.31309082 386.44520996 263.62618164 386.89041992 262.91845703 387.34912109 C249.17569609 396.23568976 234.62795603 403.6010303 220.03741455 410.97021484 C217.9637655 412.01831426 215.89165265 413.06940053 213.81982422 414.12109375 C197.11140977 422.5963312 180.32218138 430.82242193 163.29296875 438.63671875 C155.73947684 442.10572213 148.23057679 445.66638268 140.72113037 449.22949219 C128.12561411 455.20289431 115.50410268 461.11738598 102.83328247 466.92953491 C101.288555 467.63822615 99.74433707 468.34802919 98.20065308 469.05899048 C96.06251045 470.04299697 93.92226851 471.02226966 91.78125 472 C91.15066177 472.29081955 90.52007355 472.5816391 89.87037659 472.88127136 C87.4759507 473.9690516 85.20236715 474.95179343 82.63867188 475.5625 C82.09791016 475.706875 81.55714844 475.85125 81 476 C80.67 476.66 80.34 477.32 80 478 C78.3203125 478.67578125 78.3203125 478.67578125 76.125 479.3125 C70.51971516 481.08072865 65.31337321 483.50467206 60 486 C57.89119102 486.97518328 55.78179539 487.94909873 53.671875 488.921875 C52.58455078 489.42396484 51.49722656 489.92605469 50.37695312 490.44335938 C44.67872258 493.07001625 38.97259846 495.67684097 33.25 498.25 C32.18523437 498.73984375 31.12046875 499.2296875 30.0234375 499.734375 C29.03085938 500.1778125 28.03828125 500.62125 27.015625 501.078125 C25.70513184 501.67222168 25.70513184 501.67222168 24.36816406 502.27832031 C21.70714487 503.08924534 20.59285455 502.84857058 18 502 C14.69174761 502.08354173 11.39711984 502.25613506 8.09375 502.453125 C5 502 5 502 2.65625 499.609375 C0.41944297 496.08534882 -0.12460664 494.37630405 -0.12025452 490.24179077 C-0.12162918 489.23775711 -0.12300385 488.23372345 -0.12442017 487.19926453 C-0.12082489 486.09371719 -0.11722961 484.98816986 -0.11352539 483.84912109 C-0.11367142 482.68815414 -0.11381744 481.52718719 -0.1139679 480.33103943 C-0.11326903 476.4784867 -0.10547781 472.62598182 -0.09765625 468.7734375 C-0.09579198 466.10828571 -0.09431895 463.44313659 -0.09336853 460.77798462 C-0.09025745 454.47045915 -0.08204706 448.16295096 -0.07201904 441.85543311 C-0.06085098 434.67535645 -0.0553457 427.49527898 -0.05032361 420.3151958 C-0.03986427 405.54345502 -0.02226914 390.77172781 0 376 C0.66 376 1.32 376 2 376 C2.33 376.33 2.66 376.66 3 377 C2.51261358 376.14472934 2.02522717 375.28945867 1.52307147 374.40827072 C-0.11245288 370.74835727 -0.3731739 368.44703109 -0.36914349 364.46766853 C-0.37511663 363.16338248 -0.38108978 361.85909643 -0.38724393 360.51528656 C-0.37868575 359.07481548 -0.36984898 357.63434603 -0.36076355 356.19387817 C-0.36207208 354.65839728 -0.36469936 353.12291704 -0.36853105 351.58744037 C-0.37523875 347.37092669 -0.36323945 343.15464164 -0.34819686 338.93815708 C-0.33524488 334.39016289 -0.33962537 329.84218164 -0.34190369 325.29417419 C-0.34347695 317.4153958 -0.33406218 309.53669193 -0.31719017 301.65793228 C-0.29281195 290.26657167 -0.2849961 278.87524709 -0.2812262 267.48386322 C-0.27465987 249.00224255 -0.25469377 230.5206616 -0.22631836 212.0390625 C-0.1987825 194.085614 -0.1775466 176.13217629 -0.16479492 158.17871094 C-0.16400675 157.07211192 -0.16321858 155.9655129 -0.16240653 154.82538058 C-0.15849142 149.27391402 -0.1547003 143.72244738 -0.15097082 138.17098069 C-0.11986926 92.11395962 -0.0670285 46.05698186 0 0 Z " fill="#F4393C" transform="translate(179,147)"/>
<path d="M0 0 C6.07120885 0.61434851 12.01178466 1.45982025 18 2.625 C18.88461914 2.79539795 19.76923828 2.9657959 20.68066406 3.14135742 C32.6611285 5.48031395 44.59250658 8.06107172 56.52754211 10.61965942 C61.38867645 11.66018916 66.25355908 12.68128117 71.12109375 13.69140625 C120.17055979 23.89134524 169.33235647 34.54636075 214 58 C214.61117676 58.32081543 215.22235352 58.64163086 215.85205078 58.97216797 C224.97974104 63.8256441 232.9522919 69.557609 241 76 C242.6451135 77.23012992 244.29086491 78.45940761 245.9375 79.6875 C249.2313403 82.2466995 251.93114734 84.95608151 254.515625 88.2265625 C256.08200003 90.15501093 256.08200003 90.15501093 258.37109375 92.33984375 C270.50703498 104.62004579 278.95108556 119.57477619 284 136 C284.19980469 136.6290625 284.39960937 137.258125 284.60546875 137.90625 C287.74213966 154.55234512 282.20244302 169.23467898 273 183 C270.49702431 186.4937369 267.83890608 189.77420801 265 193 C264.33097656 193.76441406 263.66195313 194.52882813 262.97265625 195.31640625 C248.91487775 210.31301705 230.80039577 221.07372723 213 231 C212.26313965 231.4139502 211.5262793 231.82790039 210.76708984 232.25439453 C202.73490757 236.74369216 194.59815154 240.69384435 186 244 C184.81277344 244.45890625 183.62554687 244.9178125 182.40234375 245.390625 C174.11272371 248.55835755 165.756192 251.52249958 157.35351562 254.37646484 C152.97258928 255.88342405 148.70033022 257.53047437 144.44140625 259.35546875 C136.82721699 262.56568068 129.02820215 265.15775551 121.1875 267.75 C120.01888428 268.13818405 120.01888428 268.13818405 118.82666016 268.53421021 C93.49987531 276.93236757 67.76813077 285.01345231 41.5 289.875 C40.79891113 290.0076123 40.09782227 290.14022461 39.37548828 290.27685547 C35.98790365 290.86231207 33.2660202 291.21642589 30 290 C31.65 289.34 33.3 288.68 35 288 C35 287.34 35 286.68 35 286 C35.99 286 36.98 286 38 286 C38 285.01 38 284.02 38 283 C38.70906494 282.62302979 39.41812988 282.24605957 40.14868164 281.85766602 C78.80158728 261.46317051 78.80158728 261.46317051 112.2734375 233.64453125 C115 231 115 231 117 231 C117.268125 230.40832031 117.53625 229.81664062 117.8125 229.20703125 C119.0103024 226.98085245 120.25936491 225.50763525 122 223.6875 C142.29986093 200.89244783 152.23587029 171.06160963 152.125 140.8125 C152.12886719 139.74580078 152.13273438 138.67910156 152.13671875 137.58007812 C152.13542969 136.54947266 152.13414062 135.51886719 152.1328125 134.45703125 C152.13112061 133.0644812 152.13112061 133.0644812 152.12939453 131.64379883 C151.94486934 127.8735663 151.1916162 124.5748486 150 121 C149.46992584 117.02444379 149.00541036 113.04869321 148.5625 109.0625 C148.376875 108.051875 148.19125 107.04125 148 106 C147.34 105.67 146.68 105.34 146 105 C145.63346279 103.3403195 145.30672497 101.67176813 145 100 C140.10971638 86.40072523 133.02980444 75.1280763 124 64 C123.401875 63.24589844 122.80375 62.49179688 122.1875 61.71484375 C117.46035689 55.99909138 111.86272547 51.50805206 106 47 C105.00613281 46.21753906 104.01226562 45.43507812 102.98828125 44.62890625 C84.41703502 30.42147365 55.18950719 14 31 14 C31 13.34 31 12.68 31 12 C29.53433594 11.80857422 29.53433594 11.80857422 28.0390625 11.61328125 C23.77086781 11.0000102 19.58028144 10.1348028 15.375 9.1875 C14.63765625 9.03474609 13.9003125 8.88199219 13.140625 8.72460938 C8.55078068 7.68408015 5.41587745 6.43612969 2 3 C2 2.34 2 1.68 2 1 C1.34 0.67 0.68 0.34 0 0 Z " fill="#CD0F2A" transform="translate(280,163)"/>
<path d="M0 0 C0.33 0 0.66 0 1 0 C0.9285376 0.80047256 0.8570752 1.60094513 0.78344727 2.42567444 C-0.2817513 16.38902058 -0.11169305 30.36331583 -0.06846237 44.35761142 C-0.05827352 48.11877818 -0.05492543 51.87995091 -0.05102539 55.64112854 C-0.03817779 66.82078608 -0.01410119 78.00041655 0.01037598 89.18005371 C0.03407835 100.09789566 0.05243457 111.01573029 0.0625 121.93359375 C0.0632893 122.70105911 0.0640786 123.46852447 0.06489182 124.25924635 C0.09661986 157.51302794 -0.35796171 190.75285785 -1 224 C-1.33 224 -1.66 224 -2 224 C-2.04668018 195.38465306 -2.08196929 166.7693118 -2.10362434 138.15393448 C-2.11394553 124.86790764 -2.12802194 111.58190987 -2.15087891 98.29589844 C-2.17078701 86.71846684 -2.18371031 75.14105235 -2.18817699 63.56360412 C-2.19078874 57.43105562 -2.19694498 51.29855609 -2.21146011 45.16602325 C-2.22500327 39.39757997 -2.22922926 33.62920596 -2.22621536 27.86074829 C-2.22676699 25.74029921 -2.23076381 23.6198479 -2.23841095 21.49941254 C-2.24832104 18.61054536 -2.24598326 15.72194178 -2.24050903 12.83306885 C-2.24633472 11.98871159 -2.2521604 11.14435433 -2.25816262 10.27441049 C-2.22212307 3.26658851 -2.22212307 3.26658851 0 0 Z " fill="#FA4B4B" transform="translate(57,104)"/>
<path d="M0 0 C4.20735045 4.20735045 3.15406656 10.84018381 3.16113281 16.44018555 C3.16609772 17.38379944 3.17106262 18.32741333 3.17617798 19.29962158 C3.19075051 22.41199477 3.19759084 25.5243171 3.203125 28.63671875 C3.20887729 30.7995453 3.21463501 32.96237184 3.22039795 35.12519836 C3.2308917 39.65353635 3.23674607 44.18185665 3.24023438 48.71020508 C3.24573793 54.52460824 3.26981233 60.33877944 3.29820633 66.15310955 C3.31678054 70.61650796 3.32203535 75.07984966 3.32357025 79.54328346 C3.32660545 81.68798921 3.33466295 83.83269375 3.34775543 85.97736168 C3.36471864 88.96775727 3.36296047 91.95757453 3.35644531 94.94799805 C3.3656601 95.83997391 3.37487488 96.73194977 3.3843689 97.6509552 C3.36749268 100.11064148 3.36749268 100.11064148 3 104 C1.515 104.99 1.515 104.99 0 106 C-1.30424138 101.0694735 -1.09237381 96.21643717 -1.02172852 91.16088867 C-1.01212097 90.17504791 -1.00251343 89.18920715 -0.99261475 88.17349243 C-0.9596876 84.92157712 -0.91933123 81.66979878 -0.87890625 78.41796875 C-0.854599 76.16067485 -0.83075574 73.9033759 -0.80735779 71.64607239 C-0.74457711 65.7096278 -0.67549335 59.77327264 -0.60510254 53.83691406 C-0.53436479 47.77738512 -0.46958038 41.71779285 -0.40429688 35.65820312 C-0.27536206 23.77206583 -0.13976922 11.88601449 0 0 Z " fill="#F37A69" transform="translate(178,44)"/>
<path d="M0 0 C0.33 0 0.66 0 1 0 C1.4835135 2.47838682 1.96187201 4.95759778 2.4375 7.4375 C2.57220703 8.12521484 2.70691406 8.81292969 2.84570312 9.52148438 C4.62486456 18.85123334 5.17577091 27.97467784 5.23828125 37.46875 C5.246353 38.66189819 5.25442474 39.85504639 5.26274109 41.08435059 C5.27652611 43.60911636 5.28727302 46.13390034 5.29516602 48.65869141 C5.306593 51.19097523 5.32689383 53.72323679 5.35668945 56.25537109 C5.5599343 73.58000761 4.37268689 89.99094006 1 107 C0.67 107 0.34 107 0 107 C-0.02753831 105.4792733 -0.04663375 103.95839326 -0.0625 102.4375 C-0.07410156 101.59058594 -0.08570313 100.74367188 -0.09765625 99.87109375 C0.05344026 95.42885646 0.81973714 91.10394555 1.53515625 86.72265625 C2.87589393 77.41694359 3.23897386 68.15274013 3.29855347 58.76168823 C3.30774465 57.35354624 3.32172894 55.94542618 3.34085083 54.53738403 C3.43429362 46.74874792 3.08055381 39.61736611 0.64526367 32.14990234 C0 30 0 30 0 27 C0.66 27 1.32 27 2 27 C2.19912011 20.92683674 1.63396072 15.54926809 0.4453125 9.59765625 C-0.11611488 6.32266323 -0.14721042 3.3122344 0 0 Z " fill="#F69287" transform="translate(561,262)"/>
<path d="M0 0 C0 0.66 0 1.32 0 2 C-5.63217677 4.8286628 -11.26579422 7.65443052 -16.90063477 10.4777832 C-18.80823782 11.4340638 -20.71547821 12.39106825 -22.62231445 13.34887695 C-32.57186995 18.34595136 -42.53616996 23.31153513 -52.57421875 28.12890625 C-53.35279739 28.50707993 -54.13137604 28.8852536 -54.93354797 29.27488708 C-58.60720972 31.02270663 -61.91997763 32.4664625 -66 33 C-66 33.66 -66 34.32 -66 35 C-69.465 35.495 -69.465 35.495 -73 36 C-70.95746979 33.95746979 -69.47521895 33.16502714 -66.87890625 31.96875 C-65.61373169 31.37876221 -65.61373169 31.37876221 -64.32299805 30.77685547 C-63.41203369 30.35549316 -62.50106934 29.93413086 -61.5625 29.5 C-54.34718601 26.11714515 -47.22097175 22.62171415 -40.1875 18.875 C-4.72526751 0 -4.72526751 0 0 0 Z " fill="#FCA397" transform="translate(254,480)"/>
<path d="M0 0 C1.68156755 2.52235132 3.16468006 5.03586642 4.625 7.6875 C5.29402344 8.89986328 5.29402344 8.89986328 5.9765625 10.13671875 C6.31429687 10.75160156 6.65203125 11.36648438 7 12 C5.68 11.34 4.36 10.68 3 10 C3 9.34 3 8.68 3 8 C2.34 8 1.68 8 1 8 C1 47.27 1 86.54 1 127 C0.67 127 0.34 127 0 127 C-0.33 86.74 -0.66 46.48 -1 5 C-1.99 4.67 -2.98 4.34 -4 4 C-2.68 3.34 -1.36 2.68 0 2 C0 1.34 0 0.68 0 0 Z " fill="#BC0326" transform="translate(178,515)"/>
<path d="M0 0 C0.33 0 0.66 0 1 0 C0.93148331 0.83487442 0.86296661 1.66974884 0.79237366 2.52992249 C-0.05374604 13.81071333 -0.21813828 25.06224503 -0.31640625 36.37109375 C-0.33702944 38.38990146 -0.35802709 40.40870537 -0.37937927 42.42750549 C-0.43404695 47.68967578 -0.48369533 52.95188135 -0.53222656 58.21411133 C-0.58285073 63.60436062 -0.63832116 68.99455992 -0.69335938 74.38476562 C-0.80026234 84.92313418 -0.90185213 95.46154652 -1 106 C-1.33 106 -1.66 106 -2 106 C-2.04630297 92.76994942 -2.08185886 79.53991806 -2.10362434 66.30980301 C-2.1140697 60.16679272 -2.12824269 54.0238378 -2.15087891 47.88085938 C-2.17258035 41.95459192 -2.18456296 36.02837778 -2.18975449 30.10207367 C-2.19345509 27.83900869 -2.20068125 25.57594669 -2.21146011 23.31290436 C-2.22593904 20.14766593 -2.22797943 16.98264893 -2.22705078 13.81738281 C-2.23783661 12.40829147 -2.23783661 12.40829147 -2.24884033 10.97073364 C-2.246091 10.10699127 -2.24334167 9.2432489 -2.24050903 8.35333252 C-2.24235262 7.60483662 -2.24419621 6.85634071 -2.24609566 6.08516312 C-1.96484215 3.70210828 -1.1812394 2.07223272 0 0 Z " fill="#F6645D" transform="translate(57,104)"/>
<path d="M0 0 C13.09977103 -0.67563289 25.2019422 1.33845701 38 4 C37.01 4.33 36.02 4.66 35 5 C35 5.66 35 6.32 35 7 C35.66 7.33 36.32 7.66 37 8 C31.555 7.505 31.555 7.505 26 7 C25.67 6.01 25.34 5.02 25 4 C24.27530518 4.18103271 23.55061035 4.36206543 22.80395508 4.54858398 C19.89717249 5.01655447 17.99677705 4.83157189 15.13671875 4.22265625 C13.80737305 3.94711914 13.80737305 3.94711914 12.45117188 3.66601562 C11.0831543 3.36727539 11.0831543 3.36727539 9.6875 3.0625 C8.29047852 2.76956055 8.29047852 2.76956055 6.86523438 2.47070312 C4.57483581 1.98913215 2.28672729 1.49866228 0 1 C0 0.67 0 0.34 0 0 Z " fill="#B60722" transform="translate(241,158)"/>
<path d="M0 0 C0.66 0.33 1.32 0.66 2 1 C0.70364249 3.59271502 -0.47928245 3.89542164 -3.078125 5.12890625 C-3.90957031 5.52400391 -4.74101562 5.91910156 -5.59765625 6.32617188 C-6.47292969 6.73416016 -7.34820312 7.14214844 -8.25 7.5625 C-9.10980469 7.97435547 -9.96960938 8.38621094 -10.85546875 8.81054688 C-14.92609245 10.72668792 -18.53892633 12.24319313 -23 13 C-23 13.66 -23 14.32 -23 15 C-25.31 15.33 -27.62 15.66 -30 16 C-27.8700756 13.8700756 -26.17453366 13.01980395 -23.45703125 11.7578125 C-22.54759766 11.33113281 -21.63816406 10.90445312 -20.70117188 10.46484375 C-19.74791016 10.02269531 -18.79464844 9.58054687 -17.8125 9.125 C-10.24300286 5.63567929 -10.24300286 5.63567929 -2.94921875 1.6171875 C-1.97597656 1.08351563 -1.00273437 0.54984375 0 0 Z " fill="#FBA89B" transform="translate(211,500)"/>
<path d="M0 0 C5.56890517 0.47986031 10.67067568 1.29915181 16 3 C16 4.32 16 5.64 16 7 C8.02201622 7.62572422 8.02201622 7.62572422 3.9375 5.125 C2 3 2 3 2 1 C1.34 0.67 0.68 0.34 0 0 Z " fill="#B01A34" transform="translate(280,163)"/>
<path d="M0 0 C6.93 0 13.86 0 21 0 C19.02 0.99 19.02 0.99 17 2 C19.39469729 2.50604924 21.79051717 3.00499517 24.1875 3.5 C24.86103516 3.64308594 25.53457031 3.78617188 26.22851562 3.93359375 C29.87509793 4.68069842 33.27648957 5.17352282 37 5 C37.495 6.485 37.495 6.485 38 8 C25.22076551 6.2977958 12.62358142 3.58226388 0 1 C0 0.67 0 0.34 0 0 Z " fill="#D87287" transform="translate(229,157)"/>
<path d="M0 0 C3.46784954 3.86143983 4.88951071 8.51416627 6.625 13.3125 C6.93695312 14.14201172 7.24890625 14.97152344 7.5703125 15.82617188 C9.30974393 20.57586934 10.4971143 24.96434724 11 30 C8.72663965 26.58995947 7.44737827 23.07324077 6.0625 19.25 C5.55506168 17.85876246 5.04595746 16.46813136 4.53515625 15.078125 C4.16028076 14.0562207 4.16028076 14.0562207 3.77783203 13.01367188 C3.01996329 11.0516815 2.17848001 9.14883988 1.30859375 7.234375 C0 4 0 4 0 0 Z " fill="#FDAEA0" transform="translate(546,217)"/>
<path d="M0 0 C2.97 0.495 2.97 0.495 6 1 C6 1.66 6 2.32 6 3 C6.99 3.33 7.98 3.66 9 4 C9 4.66 9 5.32 9 6 C7.37536158 6.05395478 5.75021459 6.09277195 4.125 6.125 C2.76761719 6.15980469 2.76761719 6.15980469 1.3828125 6.1953125 C-1 6 -1 6 -3 4 C-5.57061311 3.35232207 -5.57061311 3.35232207 -8 3 C-8 2.67 -8 2.34 -8 2 C-5.36 2 -2.72 2 0 2 C0 1.34 0 0.68 0 0 Z " fill="#CC596E" transform="translate(276,163)"/>
<path d="M0 0 C0.66 0.33 1.32 0.66 2 1 C-0.54642509 4.11229733 -3.25510724 4.77883932 -7 6 C-7.33 6.66 -7.66 7.32 -8 8 C-10.32156597 8.40729228 -12.6568787 8.74438677 -15 9 C-15 8.34 -15 7.68 -15 7 C-12.54595776 5.80283341 -10.08748321 4.6170654 -7.625 3.4375 C-6.57699219 2.92413086 -6.57699219 2.92413086 -5.5078125 2.40039062 C-3.69947784 1.53969288 -1.85148044 0.76347564 0 0 Z " fill="#EA6474" transform="translate(267,617)"/>
<path d="M0 0 C0.66 0 1.32 0 2 0 C1.42978625 6.95660771 -0.01302694 13.31427305 -2 20 C-2.33 20 -2.66 20 -3 20 C-3.40850553 12.91923749 -1.90420731 6.80074041 0 0 Z " fill="#FB9E8E" transform="translate(559,369)"/>
<path d="M0 0 C6.52535297 0.43502353 12.38603155 2.63938913 18 6 C18.33 6.99 18.66 7.98 19 9 C14.53202662 7.60121198 10.36177921 5.86369228 6.125 3.875 C4.97257813 3.33617187 3.82015625 2.79734375 2.6328125 2.2421875 C1.76398438 1.83226562 0.89515625 1.42234375 0 1 C0 0.67 0 0.34 0 0 Z " fill="#C6556A" transform="translate(136,630)"/>
<path d="M0 0 C0 0.66 0 1.32 0 2 C-2.07573081 3.20284401 -4.15883095 4.38705701 -6.25 5.5625 C-7.12978516 6.07586914 -7.12978516 6.07586914 -8.02734375 6.59960938 C-12.50804195 9.09168309 -12.50804195 9.09168309 -15.20214844 8.58959961 C-15.79543945 8.39503174 -16.38873047 8.20046387 -17 8 C-14.54429825 6.66161267 -12.08570084 5.32913768 -9.625 4 C-8.92632812 3.6184375 -8.22765625 3.236875 -7.5078125 2.84375 C-2.2265625 0 -2.2265625 0 0 0 Z " fill="#FCA296" transform="translate(111,73)"/>
<path d="M0 0 C1.89492187 0.01353516 1.89492187 0.01353516 3.828125 0.02734375 C4.79234375 0.03894531 5.7565625 0.05054688 6.75 0.0625 C6.110625 0.371875 5.47125 0.68125 4.8125 1 C2.81389179 1.8970163 2.81389179 1.8970163 1.75 3.0625 C-0.94654854 3.13569621 -3.61691458 3.15492537 -6.3125 3.125 C-7.07111328 3.12048828 -7.82972656 3.11597656 -8.61132812 3.11132812 C-10.49091871 3.0995068 -12.37046899 3.08157078 -14.25 3.0625 C-9.43910622 -0.14476252 -5.75185764 -0.05325794 0 0 Z " fill="#E07184" transform="translate(189.25,35.9375)"/>
<path d="M0 0 C-3.03056792 2.44168979 -6.09018596 4.13027389 -9.625 5.75 C-11.06746094 6.42289063 -11.06746094 6.42289063 -12.5390625 7.109375 C-13.35117188 7.40328125 -14.16328125 7.6971875 -15 8 C-15.66 7.67 -16.32 7.34 -17 7 C-15.56350117 4.12700235 -13.64145693 3.69702977 -10.75 2.375 C-9.79609375 1.92898438 -8.8421875 1.48296875 -7.859375 1.0234375 C-5.01069579 0.00382827 -2.99411255 -0.20762094 0 0 Z " fill="#EA6879" transform="translate(252,626)"/>
<path d="M0 0 C3.68189944 1.13289214 7.25879746 2.45584447 10.8125 3.9375 C11.58207031 4.25589844 12.35164063 4.57429687 13.14453125 4.90234375 C15 6 15 6 16 9 C10.08030998 7.24009216 4.58365008 4.60305395 -1 2 C-0.67 1.34 -0.34 0.68 0 0 Z " fill="#C64960" transform="translate(87,605)"/>
<path d="M0 0 C-0.99 0.495 -0.99 0.495 -2 1 C-2 2.65 -2 4.3 -2 6 C-6 6 -6 6 -8.25 4 C-8.8275 3.34 -9.405 2.68 -10 2 C-6.49223216 0.39644899 -3.85645121 -0.22036864 0 0 Z " fill="#BF0621" transform="translate(184,38)"/>
<path d="M0 0 C0.66 0.33 1.32 0.66 2 1 C2 1.66 2 2.32 2 3 C-2.96284034 5.37113483 -7.45949887 7.43174347 -13 8 C-10.61664713 5.32561064 -8.12963852 3.84841988 -4.9375 2.25 C-4.05964844 1.80140625 -3.18179688 1.3528125 -2.27734375 0.890625 C-1.52582031 0.59671875 -0.77429688 0.3028125 0 0 Z " fill="#F7928A" transform="translate(173,39)"/>
<path d="M0 0 C0 0.66 0 1.32 0 2 C-0.99 2 -1.98 2 -3 2 C-3 2.66 -3 3.32 -3 4 C-4.98 4.99 -4.98 4.99 -7 6 C-6.34 6.66 -5.68 7.32 -5 8 C-8.3 8 -11.6 8 -15 8 C-13.48529691 4.97059382 -11.0596179 4.35039454 -8.0625 2.875 C-6.98097656 2.33617187 -5.89945312 1.79734375 -4.78515625 1.2421875 C-2 0 -2 0 0 0 Z " fill="#FA7F7A" transform="translate(318,447)"/>
<path d="M0 0 C2.9552728 2.61778794 4.75832727 5.67583335 6.75 9.0625 C7.38421875 10.12597656 8.0184375 11.18945312 8.671875 12.28515625 C9.11015625 13.18105469 9.5484375 14.07695312 10 15 C9.67 15.66 9.34 16.32 9 17 C6.66063182 14.87330165 5.19346152 12.93775144 4 10 C4 9.01 4 8.02 4 7 C3.34 7 2.68 7 2 7 C2 6.34 2 5.68 2 5 C1.34 4.67 0.68 4.34 0 4 C0 2.68 0 1.36 0 0 Z " fill="#FDA796" transform="translate(530,187)"/>
<path d="M0 0 C0.33 0 0.66 0 1 0 C0.88573491 2.41760876 0.75900339 4.83347218 0.625 7.25 C0.5940625 7.93191406 0.563125 8.61382812 0.53125 9.31640625 C0.31740626 12.98739038 -0.01077055 15.86251616 -2 19 C-2.05411124 16.58303128 -2.09372278 14.16728213 -2.125 11.75 C-2.14175781 11.06808594 -2.15851562 10.38617188 -2.17578125 9.68359375 C-2.21213482 5.9391765 -2.07944349 3.17647273 0 0 Z " fill="#F97C71" transform="translate(57,104)"/>
<path d="M0 0 C1.68156755 2.52235132 3.16468006 5.03586642 4.625 7.6875 C5.29402344 8.89986328 5.29402344 8.89986328 5.9765625 10.13671875 C6.31429687 10.75160156 6.65203125 11.36648438 7 12 C5.68 11.34 4.36 10.68 3 10 C3 9.34 3 8.68 3 8 C2.01 8 1.02 8 0 8 C-0.33 7.01 -0.66 6.02 -1 5 C-1.99 4.67 -2.98 4.34 -4 4 C-2.68 3.34 -1.36 2.68 0 2 C0 1.34 0 0.68 0 0 Z " fill="#C60A2A" transform="translate(178,515)"/>
<path d="M0 0 C-1.89332534 0.81832722 -3.78977733 1.62942268 -5.6875 2.4375 C-6.74324219 2.88996094 -7.79898437 3.34242188 -8.88671875 3.80859375 C-11.61972529 4.85447455 -14.12042337 5.53520748 -17 6 C-12.98615948 0.93907065 -6.30754927 -2.10729487 0 0 Z " fill="#F24343" transform="translate(475,405)"/>
<path d="M0 0 C0.66 0.33 1.32 0.66 2 1 C-0.40689803 3.72675159 -2.92471023 5.11966596 -6.1875 6.6875 C-7.08855469 7.12449219 -7.98960938 7.56148438 -8.91796875 8.01171875 C-9.60503906 8.33785156 -10.29210937 8.66398437 -11 9 C-11.66 8.34 -12.32 7.68 -13 7 C-10.88002166 5.80266012 -8.75486324 4.61701287 -6.625 3.4375 C-6.02171875 3.09525391 -5.4184375 2.75300781 -4.796875 2.40039062 C-3.23021759 1.53872905 -1.61709138 0.76281817 0 0 Z " fill="#FB9F93" transform="translate(86,85)"/>
<path d="M0 0 C-0.38006355 2.64892779 -0.80085645 3.80532155 -2.7421875 5.703125 C-3.44601562 6.21359375 -4.14984375 6.7240625 -4.875 7.25 C-5.92300781 8.03117187 -5.92300781 8.03117187 -6.9921875 8.828125 C-9 10 -9 10 -12 10 C-10.38113585 8.32737283 -8.7547271 6.66204463 -7.125 5 C-6.22007812 4.071875 -5.31515625 3.14375 -4.3828125 2.1875 C-2 0 -2 0 0 0 Z " fill="#F1797C" transform="translate(397,394)"/>
<path d="M0 0 C0 0.66 0 1.32 0 2 C-1.95330868 3.03041513 -3.91281528 4.0490893 -5.875 5.0625 C-6.96554688 5.63097656 -8.05609375 6.19945312 -9.1796875 6.78515625 C-10.11039063 7.18605469 -11.04109375 7.58695312 -12 8 C-12.66 7.67 -13.32 7.34 -14 7 C-11.725306 4.44736912 -9.56797307 3.15855185 -6.4375 1.8125 C-5.65246094 1.46832031 -4.86742187 1.12414062 -4.05859375 0.76953125 C-2 0 -2 0 0 0 Z " fill="#FC978B" transform="translate(254,480)"/>
<path d="M0 0 C13.6332574 -0.18451025 13.6332574 -0.18451025 20 1 C20 1.33 20 1.66 20 2 C12.85650045 3.1710655 7.04321983 2.59295252 0 1 C0 0.67 0 0.34 0 0 Z " fill="#C30925" transform="translate(225,155)"/>
<path d="M0 0 C1.43836751 0.11458693 2.87570966 0.24209116 4.3125 0.375 C5.51326172 0.47941406 5.51326172 0.47941406 6.73828125 0.5859375 C9 1 9 1 12 3 C7.375 5.125 7.375 5.125 4 4 C3.34 3.67 2.68 3.34 2 3 C2 2.34 2 1.68 2 1 C1.34 0.67 0.68 0.34 0 0 Z " fill="#BC0822" transform="translate(280,163)"/>
<path d="M0 0 C4.35522853 0.50642192 7.44239635 1.38411497 11 4 C11 4.66 11 5.32 11 6 C6.87248551 5.39301257 3.6678852 3.96189209 0 2 C0 1.34 0 0.68 0 0 Z " fill="#C75166" transform="translate(111,617)"/>
<path d="M0 0 C0 0.66 0 1.32 0 2 C-3 4 -3 4 -7 4 C-7 4.66 -7 5.32 -7 6 C-9.31 6.33 -11.62 6.66 -14 7 C-11.79459886 4.79459886 -9.78605258 3.7599273 -7 2.375 C-6.113125 1.92898438 -5.22625 1.48296875 -4.3125 1.0234375 C-2 0 -2 0 0 0 Z " fill="#FDB9AC" transform="translate(195,509)"/>
<path d="M0 0 C0.33 0 0.66 0 1 0 C1.19573608 1.43640171 1.38127816 2.87419504 1.5625 4.3125 C1.66691406 5.11300781 1.77132813 5.91351563 1.87890625 6.73828125 C2 9 2 9 1 12 C0.34 12 -0.32 12 -1 12 C-1.33 12.66 -1.66 13.32 -2 14 C-1.43393721 9.30976546 -0.81462495 4.65499974 0 0 Z " fill="#E87680" transform="translate(431,324)"/>
<path d="M0 0 C3.72114571 2.31537955 6.61229661 4.28579473 9 8 C7.35 7.67 5.7 7.34 4 7 C4 6.01 4 5.02 4 4 C3.01 4 2.02 4 1 4 C0.67 2.68 0.34 1.36 0 0 Z " fill="#FD9686" transform="translate(488,138)"/>
<path d="M0 0 C1.4391134 0.28359887 2.87625518 0.57721399 4.3125 0.875 C5.11300781 1.03742188 5.91351563 1.19984375 6.73828125 1.3671875 C9 2 9 2 12 4 C8.98968256 4.93423645 8.13349732 5.04449911 5 4 C5 3.34 5 2.68 5 2 C3.35 2 1.7 2 0 2 C0 1.34 0 0.68 0 0 Z " fill="#FD8887" transform="translate(386,81)"/>
<path d="M0 0 C0.66 0.33 1.32 0.66 2 1 C-0.52956528 4.0916909 -3.22454612 4.90931332 -7 6 C-6 3 -6 3 -3.0625 1.25 C-2.051875 0.8375 -1.04125 0.425 0 0 Z " fill="#F77078" transform="translate(319,593)"/>
<path d="M0 0 C-4.455 1.485 -4.455 1.485 -9 3 C-8 0 -8 0 -6.1875 -1.3125 C-4 -2 -4 -2 0 0 Z " fill="#F36A77" transform="translate(288,611)"/>
<path d="M0 0 C0.66 0.33 1.32 0.66 2 1 C0.02579865 3.52259061 -0.96745642 3.9929808 -4.1875 4.6875 C-5.5796875 4.8421875 -5.5796875 4.8421875 -7 5 C-4.88437775 2.67281553 -2.94982021 1.14186589 0 0 Z " fill="#FCA296" transform="translate(124,65)"/>
<path d="M0 0 C-3.20336822 2.83374881 -5.78087253 3.5205537 -10 4 C-7.93026888 -0.13946223 -4.25879356 -0.23659964 0 0 Z " fill="#FC9A8D" transform="translate(104,78)"/>
<path d="M0 0 C2.9375 0.8125 2.9375 0.8125 6 2 C6.33 2.99 6.66 3.98 7 5 C1.25 3.25 1.25 3.25 -1 1 C-0.67 0.67 -0.34 0.34 0 0 Z " fill="#D06E80" transform="translate(87,605)"/>
<path d="M0 0 C0.66 0.33 1.32 0.66 2 1 C0.02579865 3.52259061 -0.96745642 3.9929808 -4.1875 4.6875 C-5.5796875 4.8421875 -5.5796875 4.8421875 -7 5 C-2.25 1.125 -2.25 1.125 0 0 Z " fill="#FBA498" transform="translate(271,470)"/>
<path d="M0 0 C3.3 0.33 6.6 0.66 10 1 C10 1.33 10 1.66 10 2 C5.545 2.495 5.545 2.495 1 3 C0.67 2.01 0.34 1.02 0 0 Z " fill="#C40925" transform="translate(269,161)"/>
<path d="M0 0 C1.98 1.65 3.96 3.3 6 5 C4.68 5.33 3.36 5.66 2 6 C0 2.25 0 2.25 0 0 Z " fill="#FC8E7D" transform="translate(497,146)"/>
<path d="M0 0 C0.33 0 0.66 0 1 0 C1 1.65 1 3.3 1 5 C0.67 5 0.34 5 0 5 C0 3.35 0 1.7 0 0 Z " fill="#FAFCFC" transform="translate(431,296)"/>
<path d="M0 0 C4 1 4 1 4 1 Z " fill="#FBFBFB" transform="translate(235,160)"/>
<path d="" fill="#FAFCFC" transform="translate(0,0)"/>
<path d="" fill="#FAFCFC" transform="translate(0,0)"/>
<path d="M0 0 C3 1 3 1 3 1 Z " fill="#FAFCFB" transform="translate(261,165)"/>
<path d="M0 0 C3 1 3 1 3 1 Z " fill="#FCFAF9" transform="translate(205,37)"/>
<path d="M0 0 C2 1 2 1 2 1 Z " fill="#FBFCFC" transform="translate(194,652)"/>
<path d="M0 0 C2 1 2 1 2 1 Z " fill="#FBFCFC" transform="translate(183,652)"/>
<path d="M0 0 C2 1 2 1 2 1 Z " fill="#FBFCFC" transform="translate(177,651)"/>
<path d="" fill="#FBFCFC" transform="translate(0,0)"/>
<path d="" fill="#FBFBFC" transform="translate(0,0)"/>
<path d="" fill="#FAFCFD" transform="translate(0,0)"/>
<path d="" fill="#FAFCFD" transform="translate(0,0)"/>
<path d="" fill="#FAFCFC" transform="translate(0,0)"/>
<path d="" fill="#FAFCFD" transform="translate(0,0)"/>
<path d="M0 0 C2 1 2 1 2 1 Z " fill="#FBFCFC" transform="translate(328,181)"/>
<path d="M0 0 C2 1 2 1 2 1 Z " fill="#FBFCFC" transform="translate(293,172)"/>
<path d="M0 0 C2 1 2 1 2 1 Z " fill="#FBFCFC" transform="translate(285,170)"/>
<path d="M0 0 C2 1 2 1 2 1 Z " fill="#FBFCFC" transform="translate(257,164)"/>
<path d="M0 0 C2 1 2 1 2 1 Z " fill="#FBFCFB" transform="translate(221,157)"/>
<path d="M0 0 C2 1 2 1 2 1 Z " fill="#FBF9F9" transform="translate(211,38)"/>
<path d="" fill="#FAFDFD" transform="translate(0,0)"/>
<path d="" fill="#FCFBFC" transform="translate(0,0)"/>
<path d="" fill="#FCFBFC" transform="translate(0,0)"/>
<path d="" fill="#FBFBFB" transform="translate(0,0)"/>
<path d="" fill="#FBFCFC" transform="translate(0,0)"/>
<path d="" fill="#FBFCFC" transform="translate(0,0)"/>
<path d="" fill="#FBFCFC" transform="translate(0,0)"/>
<path d="" fill="#FCFBFC" transform="translate(0,0)"/>
<path d="" fill="#FBFCFC" transform="translate(0,0)"/>
<path d="" fill="#FBFCFC" transform="translate(0,0)"/>
<path d="" fill="#FBFCFC" transform="translate(0,0)"/>
<path d="" fill="#FAFCFC" transform="translate(0,0)"/>
<path d="" fill="#FBFCFC" transform="translate(0,0)"/>
<path d="" fill="#FDFBFB" transform="translate(0,0)"/>
<path d="" fill="#FBFBFC" transform="translate(0,0)"/>
<path d="" fill="#FBFCFC" transform="translate(0,0)"/>
<path d="" fill="#FBFCFC" transform="translate(0,0)"/>
<path d="" fill="#FBFAFB" transform="translate(0,0)"/>
<path d="" fill="#FCFBFC" transform="translate(0,0)"/>
<path d="" fill="#FBFCFC" transform="translate(0,0)"/>
<path d="" fill="#FBFCFB" transform="translate(0,0)"/>
<path d="" fill="#FBFCFC" transform="translate(0,0)"/>
<path d="" fill="#FBFBFB" transform="translate(0,0)"/>
<path d="" fill="#FBFCFC" transform="translate(0,0)"/>
<path d="" fill="#FBFCFB" transform="translate(0,0)"/>
<path d="" fill="#FBFCFC" transform="translate(0,0)"/>
<path d="" fill="#FBFBFB" transform="translate(0,0)"/>
<path d="" fill="#FBFCFC" transform="translate(0,0)"/>
<path d="" fill="#FBFBFB" transform="translate(0,0)"/>
<path d="" fill="#FBFBFB" transform="translate(0,0)"/>
<path d="" fill="#FDFBFA" transform="translate(0,0)"/>
<path d="" fill="#FDFBFB" transform="translate(0,0)"/>
<path d="" fill="#FDFBFB" transform="translate(0,0)"/>
</svg>
